<?xml version="1.0" encoding="UTF-8"?>
<svg xmlns="http://www.w3.org/2000/svg" version="1.1" viewBox="0 0 28.35 28.35">
  <!-- Generator: Adobe Illustrator 29.4.0, SVG Export Plug-In . SVG Version: 2.1.0 Build 152)  -->
  <defs>
    <style>
      .st0 {
        fill: #fbf1ce;
      }

      .st1 {
        fill: none;
        stroke: #fbf1ce;
        stroke-miterlimit: 10;
      }
    </style>
  </defs>
  <g id="Layer_3">
    <path class="st0" d="M14.17,2.94c6.19,0,11.23,5.04,11.23,11.24s-5.04,11.23-11.23,11.23S2.94,20.37,2.94,14.17,7.98,2.94,14.17,2.94M14.17.44C6.6.44.44,6.6.44,14.17s6.16,13.73,13.74,13.73,13.73-6.16,13.73-13.73S21.75.44,14.17.44h0Z"/>
    <path class="st0" d="M14.17,6.03c4.49,0,8.14,3.65,8.14,8.14s-3.65,8.14-8.14,8.14-8.14-3.65-8.14-8.14,3.65-8.14,8.14-8.14M14.17,4.53c-5.32,0-9.64,4.32-9.64,9.64s4.32,9.64,9.64,9.64,9.64-4.32,9.64-9.64-4.32-9.64-9.64-9.64h0Z"/>
  </g>
  <g id="Layer_1">
    <circle class="st1" cx="14.17" cy="12.46" r="2.93"/>
    <path class="st1" d="M12.4,14.72s-3.49.76-3.49,6.16"/>
    <path class="st1" d="M15.64,14.72s3.49.76,3.49,6.16"/>
  </g>
</svg>