<?xml version="1.0" encoding="UTF-8"?>
<svg id="Layer_1" xmlns="http://www.w3.org/2000/svg" version="1.1" viewBox="0 0 20 20">
  <!-- Generator: Adobe Illustrator 29.4.0, SVG Export Plug-In . SVG Version: 2.1.0 Build 152)  -->
  <defs>
    <style>
      .st0 {
        fill: #e2d7b6;
      }
    </style>
  </defs>
  <g id="Layer_11" data-name="Layer_1">
    <path class="st0" d="M10,1c4.96,0,9,4.04,9,9s-4.04,9-9,9S1,14.96,1,10,5.04,1,10,1M10,0C4.48,0,0,4.48,0,10s4.48,10,10,10,10-4.48,10-10S15.52,0,10,0h0Z"/>
  </g>
  <g id="Layer_2">
    <path class="st0" d="M15.7,8.53c.05.2.09.4.13.6-.83-1.08-2.25-1.6-3.64-1.24-1.86.49-2.96,2.38-2.48,4.24s2.38,2.97,4.24,2.49c-.65.6-1.44,1.05-2.35,1.29-3.12.82-6.35-1.16-7.2-4.41s.99-6.56,4.12-7.38,6.34,1.16,7.19,4.42h0Z"/>
  </g>
</svg>