<?xml version="1.0" encoding="UTF-8"?>
<svg id="Layer_1" xmlns="http://www.w3.org/2000/svg" version="1.1" viewBox="0 0 21.5 21.5">
  <!-- Generator: Adobe Illustrator 29.4.0, SVG Export Plug-In . SVG Version: 2.1.0 Build 152)  -->
  <defs>
    <style>
      .st0 {
        stroke-linecap: round;
      }

      .st0, .st1, .st2 {
        fill: none;
        stroke: #fbf1cd;
        stroke-miterlimit: 10;
      }

      .st1 {
        stroke-width: 1.5px;
      }

      .st2 {
        stroke-width: .75px;
      }
    </style>
  </defs>
  <g id="Layer_3">
    <circle class="st1" cx="10.75" cy="10.75" r="10"/>
  </g>
  <g id="Layer_11" data-name="Layer_1">
    <g>
      <path class="st2" d="M10.05,13.6c-1.98,0-3.59-1.61-3.59-3.59s1.61-3.59,3.59-3.59,3.59,1.61,3.59,3.59-1.61,3.59-3.59,3.59Z"/>
      <path class="st2" d="M10.05,6.61c1.87,0,3.4,1.53,3.4,3.4s-1.53,3.4-3.4,3.4-3.4-1.53-3.4-3.4,1.53-3.4,3.4-3.4M10.05,6.24c-2.08,0-3.78,1.69-3.78,3.78s1.69,3.78,3.78,3.78,3.78-1.69,3.78-3.78-1.69-3.78-3.78-3.78h0Z"/>
    </g>
    <line class="st0" x1="12.62" y1="12.86" x2="15.02" y2="15.26"/>
  </g>
</svg>