<?xml version="1.0" encoding="UTF-8"?>
<svg xmlns="http://www.w3.org/2000/svg" viewBox="0 0 21.5 21.5">
  <defs>
    <style>
      .cls-1 {
        stroke-linecap: round;
      }

      .cls-1, .cls-2, .cls-3 {
        fill: none;
        stroke: #50867e;
        stroke-miterlimit: 10;
      }

      .cls-2 {
        stroke-width: 1.5px;
      }

      .cls-3 {
        stroke-width: .75px;
      }
    </style>
  </defs>
  <g id="Layer_3" data-name="Layer 3">
    <circle class="cls-2" cx="10.75" cy="10.75" r="10"/>
  </g>
  <g id="Layer_1" data-name="Layer 1">
    <g>
      <path class="cls-3" d="M10.05,13.6c-1.98,0-3.59-1.61-3.59-3.59s1.61-3.59,3.59-3.59,3.59,1.61,3.59,3.59-1.61,3.59-3.59,3.59Z"/>
      <path class="cls-3" d="M10.05,6.61c1.87,0,3.4,1.53,3.4,3.4s-1.53,3.4-3.4,3.4-3.4-1.53-3.4-3.4,1.53-3.4,3.4-3.4M10.05,6.24c-2.08,0-3.78,1.69-3.78,3.78s1.69,3.78,3.78,3.78,3.78-1.69,3.78-3.78-1.69-3.78-3.78-3.78h0Z"/>
    </g>
    <line class="cls-1" x1="12.62" y1="12.86" x2="15.02" y2="15.26"/>
  </g>
</svg>