<?xml version="1.0" encoding="UTF-8"?>
<svg xmlns="http://www.w3.org/2000/svg" version="1.1" viewBox="0 0 28.35 28.35">
  <!-- Generator: Adobe Illustrator 29.4.0, SVG Export Plug-In . SVG Version: 2.1.0 Build 152)  -->
  <defs>
    <style>
      .st0 {
        stroke-width: .75px;
      }

      .st0, .st1 {
        fill: none;
        stroke: #fbf1ce;
        stroke-miterlimit: 10;
      }

      .st1 {
        stroke-linecap: round;
      }

      .st2 {
        fill: #fbf1ce;
      }
    </style>
  </defs>
  <g id="Layer_3">
    <path class="st2" d="M14.17,2.83c6.19,0,11.23,5.04,11.23,11.24s-5.04,11.23-11.23,11.23S2.94,20.26,2.94,14.07,7.98,2.83,14.17,2.83M14.17.33C6.6.33.44,6.49.44,14.07s6.16,13.73,13.74,13.73,13.73-6.16,13.73-13.73S21.75.33,14.17.33h0Z"/>
    <path class="st2" d="M14.17,5.93c4.49,0,8.14,3.65,8.14,8.14s-3.65,8.14-8.14,8.14-8.14-3.65-8.14-8.14,3.65-8.14,8.14-8.14M14.17,4.43c-5.32,0-9.64,4.32-9.64,9.64s4.32,9.64,9.64,9.64,9.64-4.32,9.64-9.64-4.32-9.64-9.64-9.64h0Z"/>
  </g>
  <g id="Layer_1">
    <g>
      <g>
        <path class="st0" d="M14.16,16.98c-1.97.18-3.72-1.28-3.89-3.25s1.28-3.72,3.25-3.89,3.72,1.28,3.89,3.25-1.28,3.72-3.25,3.89Z"/>
        <path class="st0" d="M13.54,10.02c1.86-.17,3.52,1.22,3.69,3.08s-1.22,3.52-3.08,3.69-3.52-1.22-3.69-3.08,1.22-3.52,3.08-3.69M13.5,9.65c-2.08.19-3.61,2.02-3.42,4.1s2.02,3.61,4.1,3.42,3.61-2.02,3.42-4.1-2.02-3.61-4.1-3.42h0Z"/>
      </g>
      <line class="st1" x1="16.66" y1="16.02" x2="19.26" y2="18.19"/>
    </g>
  </g>
</svg>