<?xml version="1.0" encoding="UTF-8"?>
<svg id="Layer_1" data-name="Layer 1" xmlns="http://www.w3.org/2000/svg" viewBox="0 0 20 20.15">
  <defs>
    <style>
      .cls-1 {
        fill: #f8af3a;
      }
    </style>
  </defs>
  <polygon class="cls-1" points="6.76 12.27 1.47 8.2 8.01 8.2 10 1.7 11.99 8.2 18.53 8.2 13.24 12.27 15.24 18.8 10 14.76 4.76 18.8 6.76 12.27"/>
  <path class="cls-1" d="M10,3.41l1.4,4.58.22.71h5.44l-3.85,2.96-.55.42.2.66,1.44,4.7-3.69-2.84-.61-.47-.61.47-3.69,2.84,1.44-4.7.2-.66-.55-.42-3.85-2.96h5.44l.22-.71,1.4-4.58M10,0l-2.36,7.7H0l6.18,4.76-2.36,7.7,6.18-4.76,6.18,4.76-2.36-7.7,6.18-4.76h-7.64L10,0h0Z"/>
</svg>