<?xml version="1.0" encoding="UTF-8"?>
<svg xmlns="http://www.w3.org/2000/svg" version="1.1" viewBox="0 0 20 20">
  <!-- Generator: Adobe Illustrator 29.4.0, SVG Export Plug-In . SVG Version: 2.1.0 Build 152)  -->
  <defs>
    <style>
      .st0 {
        fill: none;
        stroke: #f8af3a;
        stroke-linecap: round;
        stroke-miterlimit: 10;
        stroke-width: .75px;
      }

      .st1 {
        fill: #fbf1cd;
      }

      .st2 {
        fill: #f8af3a;
      }
    </style>
  </defs>
  <g id="Layer_1">
    <g>
      <path class="st1" d="M10,19.5C4.76,19.5.5,15.24.5,10S4.76.5,10,.5s9.5,4.26,9.5,9.5-4.26,9.5-9.5,9.5Z"/>
      <path class="st2" d="M10,1c4.96,0,9,4.04,9,9s-4.04,9-9,9S1,14.96,1,10,5.04,1,10,1M10,0C4.48,0,0,4.48,0,10s4.48,10,10,10,10-4.48,10-10S15.52,0,10,0h0Z"/>
    </g>
    <circle class="st2" cx="10" cy="10" r="3.22"/>
  </g>
  <g id="Layer_2">
    <line class="st0" x1="2.71" y1="10" x2="17.19" y2="10"/>
    <line class="st0" x1="9.95" y1="17.24" x2="9.95" y2="2.76"/>
    <line class="st0" x1="4.83" y1="15.12" x2="15.07" y2="4.88"/>
    <line class="st0" x1="15.07" y1="15.12" x2="4.83" y2="4.88"/>
  </g>
</svg>