<?xml version="1.0" encoding="UTF-8"?>
<svg id="Layer_1" xmlns="http://www.w3.org/2000/svg" version="1.1" viewBox="0 0 20 20">
  <!-- Generator: Adobe Illustrator 29.4.0, SVG Export Plug-In . SVG Version: 2.1.0 Build 152)  -->
  <defs>
    <style>
      .st0 {
        fill: #e2d7b6;
      }

      .st1 {
        fill: none;
        stroke: #e2d7b6;
        stroke-linecap: round;
        stroke-miterlimit: 10;
        stroke-width: .75px;
      }
    </style>
  </defs>
  <g id="Layer_11" data-name="Layer_1">
    <path class="st0" d="M10,1c4.96,0,9,4.04,9,9s-4.04,9-9,9S1,14.96,1,10,5.04,1,10,1M10,0C4.48,0,0,4.48,0,10s4.48,10,10,10,10-4.48,10-10S15.52,0,10,0h0Z"/>
    <circle class="st0" cx="10" cy="10" r="3.22"/>
  </g>
  <g id="Layer_2">
    <line class="st1" x1="2.71" y1="10" x2="17.19" y2="10"/>
    <line class="st1" x1="9.95" y1="17.24" x2="9.95" y2="2.76"/>
    <line class="st1" x1="4.83" y1="15.12" x2="15.07" y2="4.88"/>
    <line class="st1" x1="15.07" y1="15.12" x2="4.83" y2="4.88"/>
  </g>
</svg>